<svg width="490" height="110" viewBox="0 0 490 110" fill="none" xmlns="http://www.w3.org/2000/svg"><rect width="490" height="110" rx="55" fill="#D7181D"/><path d="M70.234 77h32.868v-9.9H81.916V29.81H70.234V77zm52.836.99c4.29 0 7.722-1.122 10.56-3.102 2.97-2.046 4.95-4.95 5.676-7.986h-10.494c-.924 2.112-2.772 3.366-5.61 3.366-4.422 0-6.93-2.838-7.59-7.392H139.9c.066-6.864-1.914-12.738-5.94-16.434-2.904-2.64-6.732-4.224-11.55-4.224-10.296 0-17.358 7.722-17.358 17.82 0 10.23 6.864 17.952 18.018 17.952zm-7.392-21.516c.726-4.026 2.838-6.6 6.93-6.6 3.498 0 6.006 2.574 6.402 6.6h-13.332zm37.79 21.384c5.082 0 8.052-1.782 10.032-4.62h.132c.264 1.716.594 3.036 1.122 3.762h10.428v-.462c-.924-.594-1.188-2.112-1.188-4.818V54.692c0-4.224-1.386-7.524-4.29-9.636-2.442-1.848-5.874-2.772-10.956-2.772-10.23 0-15.048 5.346-15.312 11.616h9.9c.33-2.838 2.046-4.356 5.478-4.356 3.234 0 4.62 1.452 4.62 3.63 0 2.31-2.244 2.97-8.58 3.762-6.996.924-12.936 3.168-12.936 10.626 0 6.666 4.818 10.296 11.55 10.296zm3.432-6.864c-2.64 0-4.62-1.056-4.62-3.762 0-2.574 1.716-3.63 5.874-4.554 2.178-.528 4.158-1.056 5.544-1.782v4.026c0 3.63-2.772 6.072-6.798 6.072zM179.209 77h10.758V61.82c0-7.326 4.224-10.56 10.824-9.636h.264v-9.24c-.462-.198-1.122-.264-2.112-.264-4.092 0-6.864 1.782-9.24 5.808h-.198v-5.28h-10.296V77zm25.265 0h10.758V58.322c0-4.158 2.376-7.128 5.94-7.128 3.498 0 5.28 2.442 5.28 6.006V77h10.758V55.022c0-7.524-4.356-12.804-11.748-12.804-4.686 0-7.92 1.98-10.428 5.61h-.198v-4.62h-10.362V77zm48.549 0h10.494V53.306c0-1.914-.198-9.504-.198-9.504h.132s1.65 7.128 2.178 8.844L272.361 77h9.636l6.798-24.42c.528-1.716 2.178-8.778 2.178-8.778h.132s-.198 7.524-.198 9.438V77h10.692V29.81h-15.84l-5.808 20.658c-.792 2.97-2.64 10.758-2.64 10.758h-.132s-1.848-7.788-2.706-10.758l-5.742-20.658h-15.708V77zm70.883-6.6c-4.686 0-7.128-4.092-7.128-10.23 0-6.138 2.442-10.296 7.128-10.296s7.194 4.158 7.194 10.296c0 6.138-2.508 10.23-7.194 10.23zm.066 7.656c10.89 0 18.018-7.722 18.018-17.886 0-10.164-7.128-17.886-18.018-17.886-10.824 0-18.084 7.722-18.084 17.886 0 10.164 7.26 17.886 18.084 17.886zM345.627 77h10.758V61.82c0-7.326 4.224-10.56 10.824-9.636h.264v-9.24c-.462-.198-1.122-.264-2.112-.264-4.092 0-6.864 1.782-9.24 5.808h-.198v-5.28h-10.296V77zm41.121.99c4.29 0 7.722-1.122 10.56-3.102 2.97-2.046 4.95-4.95 5.676-7.986H392.49c-.924 2.112-2.772 3.366-5.61 3.366-4.422 0-6.93-2.838-7.59-7.392h24.288c.066-6.864-1.914-12.738-5.94-16.434-2.904-2.64-6.732-4.224-11.55-4.224-10.296 0-17.358 7.722-17.358 17.82 0 10.23 6.864 17.952 18.018 17.952zm-7.392-21.516c.726-4.026 2.838-6.6 6.93-6.6 3.498 0 6.006 2.574 6.402 6.6h-13.332zm31.189 5.082h5.544l2.772-20.592V29.81h-11.088v11.154l2.772 20.592zM407.707 77h11.22V65.912h-11.22V77z" fill="#fff"/></svg>