<svg width="729" height="200" viewBox="0 0 729 200" fill="none" xmlns="http://www.w3.org/2000/svg"><g filter="url(#filter0_d_103_32)"><path d="M13.477 37h6.903V26.704l9.438-17.589h-7.293l-3.549 7.215c-.936 1.911-1.911 4.251-1.911 4.251h-.078s-.897-2.34-1.833-4.251l-3.588-7.215H4.039l9.438 17.589V37zm23.16-3.9c-2.769 0-4.212-2.418-4.212-6.045s1.443-6.084 4.212-6.084c2.77 0 4.251 2.457 4.251 6.084s-1.482 6.045-4.25 6.045zm.04 4.524c6.434 0 10.646-4.563 10.646-10.569 0-6.006-4.212-10.569-10.647-10.569-6.396 0-10.686 4.563-10.686 10.569 0 6.006 4.29 10.569 10.686 10.569zm19.66-.039c2.768 0 4.523-1.092 5.966-3.042h.117V37h6.084V17.032h-6.357v11.154c0 2.379-1.326 4.017-3.51 4.017-2.028 0-3.003-1.209-3.003-3.393V17.032h-6.318v13.104c0 4.446 2.418 7.449 7.02 7.449zm27.17-.078c3.003 0 4.758-1.053 5.928-2.73h.078c.156 1.014.35 1.794.663 2.223h6.162v-.273c-.546-.351-.702-1.248-.702-2.847V23.818c0-2.496-.82-4.446-2.535-5.694-1.443-1.092-3.471-1.638-6.474-1.638-6.045 0-8.892 3.159-9.048 6.864h5.85c.195-1.677 1.209-2.574 3.237-2.574 1.91 0 2.73.858 2.73 2.145 0 1.365-1.326 1.755-5.07 2.223-4.134.546-7.644 1.872-7.644 6.279 0 3.939 2.847 6.084 6.825 6.084zm2.028-4.056c-1.56 0-2.73-.624-2.73-2.223 0-1.521 1.014-2.145 3.47-2.691 1.288-.312 2.458-.624 3.277-1.053v2.379c0 2.145-1.638 3.588-4.017 3.588zM98.717 37h6.357v-8.97c0-4.329 2.496-6.24 6.396-5.694h.156v-5.46c-.273-.117-.663-.156-1.248-.156-2.418 0-4.056 1.053-5.46 3.432h-.117v-3.12h-6.084V37zm24.299.585c2.535 0 4.563-.663 6.24-1.833 1.755-1.209 2.925-2.925 3.354-4.719h-6.201c-.546 1.248-1.638 1.989-3.315 1.989-2.613 0-4.095-1.677-4.485-4.368h14.352c.039-4.056-1.131-7.527-3.51-9.711-1.716-1.56-3.978-2.496-6.825-2.496-6.084 0-10.257 4.563-10.257 10.53 0 6.045 4.056 10.608 10.647 10.608zm-4.368-12.714c.429-2.379 1.677-3.9 4.095-3.9 2.067 0 3.549 1.521 3.783 3.9h-7.878zM141.145 37h6.357V25.807c0-2.379 1.17-4.056 3.159-4.056 1.911 0 2.808 1.248 2.808 3.393V37h6.357V25.807c0-2.379 1.131-4.056 3.159-4.056 1.911 0 2.808 1.248 2.808 3.393V37h6.357V24.013c0-4.485-2.262-7.566-6.786-7.566-2.574 0-4.719 1.092-6.279 3.51h-.078c-1.014-2.145-3.003-3.51-5.616-3.51-2.886 0-4.797 1.365-6.045 3.432h-.117v-2.847h-6.084V37zm43.647-3.9c-2.769 0-4.212-2.418-4.212-6.045s1.443-6.084 4.212-6.084c2.769 0 4.251 2.457 4.251 6.084s-1.482 6.045-4.251 6.045zm.039 4.524c6.435 0 10.647-4.563 10.647-10.569 0-6.006-4.212-10.569-10.647-10.569-6.396 0-10.686 4.563-10.686 10.569 0 6.006 4.29 10.569 10.686 10.569zM197.626 37h6.357v-8.97c0-4.329 2.496-6.24 6.396-5.694h.156v-5.46c-.273-.117-.663-.156-1.248-.156-2.418 0-4.056 1.053-5.46 3.432h-.117v-3.12h-6.084V37zm24.299.585c2.535 0 4.563-.663 6.24-1.833 1.755-1.209 2.925-2.925 3.354-4.719h-6.201c-.546 1.248-1.638 1.989-3.315 1.989-2.613 0-4.095-1.677-4.485-4.368h14.352c.039-4.056-1.131-7.527-3.51-9.711-1.716-1.56-3.978-2.496-6.825-2.496-6.084 0-10.257 4.563-10.257 10.53 0 6.045 4.056 10.608 10.647 10.608zm-4.368-12.714c.429-2.379 1.677-3.9 4.095-3.9 2.067 0 3.549 1.521 3.783 3.9h-7.878zm30.414 12.363c1.716 0 2.925-.156 3.471-.312v-4.641c-.234 0-.858.039-1.404.039-1.365 0-2.223-.39-2.223-1.95v-9.36h3.627v-3.978h-3.627v-6.318h-6.201v6.318h-2.652v3.978h2.652v10.725c0 4.29 2.652 5.499 6.357 5.499zm5.756-.234h6.357V25.963c0-2.457 1.404-4.212 3.51-4.212 2.067 0 3.12 1.443 3.12 3.549V37h6.357V24.013c0-4.446-2.574-7.566-6.942-7.566-2.769 0-4.485 1.131-5.928 3.042h-.117V9.115h-6.357V37zm28.131.507c3.003 0 4.758-1.053 5.928-2.73h.078c.156 1.014.351 1.794.663 2.223h6.162v-.273c-.546-.351-.702-1.248-.702-2.847V23.818c0-2.496-.819-4.446-2.535-5.694-1.443-1.092-3.471-1.638-6.474-1.638-6.045 0-8.892 3.159-9.048 6.864h5.85c.195-1.677 1.209-2.574 3.237-2.574 1.911 0 2.73.858 2.73 2.145 0 1.365-1.326 1.755-5.07 2.223-4.134.546-7.644 1.872-7.644 6.279 0 3.939 2.847 6.084 6.825 6.084zm2.028-4.056c-1.56 0-2.73-.624-2.73-2.223 0-1.521 1.014-2.145 3.471-2.691 1.287-.312 2.457-.624 3.276-1.053v2.379c0 2.145-1.638 3.588-4.017 3.588zM297.069 37h6.357V25.963c0-2.457 1.404-4.212 3.51-4.212 2.067 0 3.12 1.443 3.12 3.549V37h6.357V24.013c0-4.446-2.574-7.566-6.942-7.566-2.769 0-4.68 1.17-6.162 3.315h-.117v-2.73h-6.123V37zm28.961 6.591h4.134c4.017 0 5.928-1.638 7.527-6.318l6.903-20.241h-6.357l-2.613 8.502c-.624 1.95-1.17 4.602-1.17 4.602h-.078s-.624-2.652-1.248-4.602l-2.691-8.502h-6.708l5.889 15.366c.819 2.106 1.209 3.276 1.209 4.134 0 1.365-.741 2.106-2.613 2.106h-2.184v4.953zM354.998 33.1c-2.769 0-4.212-2.418-4.212-6.045s1.443-6.084 4.212-6.084c2.769 0 4.251 2.457 4.251 6.084s-1.482 6.045-4.251 6.045zm.039 4.524c6.435 0 10.647-4.563 10.647-10.569 0-6.006-4.212-10.569-10.647-10.569-6.396 0-10.686 4.563-10.686 10.569 0 6.006 4.29 10.569 10.686 10.569zm19.66-.039c2.769 0 4.524-1.092 5.967-3.042h.117V37h6.084V17.032h-6.357v11.154c0 2.379-1.326 4.017-3.51 4.017-2.028 0-3.003-1.209-3.003-3.393V17.032h-6.318v13.104c0 4.446 2.418 7.449 7.02 7.449zM389.922 37h6.357v-8.97c0-4.329 2.496-6.24 6.396-5.694h.156v-5.46c-.273-.117-.663-.156-1.248-.156-2.418 0-4.056 1.053-5.46 3.432h-.117v-3.12h-6.084V37zm20.986 6.591h6.357v-8.658h.078c1.248 1.677 3.081 2.691 5.655 2.691 5.226 0 8.697-4.134 8.697-10.608 0-6.006-3.237-10.569-8.541-10.569-2.73 0-4.68 1.209-6.045 3.003h-.117v-2.418h-6.084v26.559zM421.36 32.71c-2.73 0-4.29-2.223-4.29-5.46s1.404-5.694 4.173-5.694c2.73 0 4.017 2.262 4.017 5.694 0 3.393-1.482 5.46-3.9 5.46zM433.835 37h6.357v-8.97c0-4.329 2.496-6.24 6.396-5.694h.156v-5.46c-.273-.117-.663-.156-1.248-.156-2.418 0-4.056 1.053-5.46 3.432h-.117v-3.12h-6.084V37zm24.299-3.9c-2.769 0-4.212-2.418-4.212-6.045s1.443-6.084 4.212-6.084c2.769 0 4.251 2.457 4.251 6.084s-1.482 6.045-4.251 6.045zm.039 4.524c6.435 0 10.647-4.563 10.647-10.569 0-6.006-4.212-10.569-10.647-10.569-6.396 0-10.686 4.563-10.686 10.569 0 6.006 4.29 10.569 10.686 10.569zm20.635 0c2.613 0 4.68-1.248 5.889-3.315h.078V37h6.084V9.115h-6.357v10.179h-.117c-1.17-1.677-2.769-2.847-5.577-2.847-5.148 0-8.736 4.329-8.736 10.569 0 6.669 3.627 10.608 8.736 10.608zm1.638-5.031c-2.457 0-3.939-2.184-3.939-5.655 0-3.354 1.482-5.694 4.017-5.694 2.769 0 4.134 2.418 4.134 5.772 0 3.276-1.56 5.577-4.212 5.577zm20.315 4.992c2.769 0 4.524-1.092 5.967-3.042h.117V37h6.084V17.032h-6.357v11.154c0 2.379-1.326 4.017-3.51 4.017-2.028 0-3.003-1.209-3.003-3.393V17.032h-6.318v13.104c0 4.446 2.418 7.449 7.02 7.449zm24.937.039c5.655 0 9.321-3.588 9.477-8.19h-6.084c-.273 2.262-1.482 3.432-3.471 3.432-2.73 0-4.095-2.262-4.095-5.811 0-3.627 1.365-5.889 4.095-5.889 1.794 0 2.886 1.17 3.276 2.964h6.123c-.585-4.485-4.056-7.644-9.477-7.644-6.318 0-10.452 4.563-10.452 10.569 0 6.006 4.173 10.569 10.608 10.569zm19.42-.39c1.716 0 2.925-.156 3.471-.312v-4.641c-.234 0-.858.039-1.404.039-1.365 0-2.223-.39-2.223-1.95v-9.36h3.627v-3.978h-3.627v-6.318h-6.201v6.318h-2.652v3.978h2.652v10.725c0 4.29 2.652 5.499 6.357 5.499zm5.756-.234h6.357V17.032h-6.357V37zm0-22.737h6.357V9.115h-6.357v5.148zM565.546 37h6.864l6.903-19.968h-6.357l-2.769 9.009c-.585 1.989-1.092 4.017-1.092 4.017h-.078s-.507-2.028-1.092-4.017l-2.73-9.009h-6.552L565.546 37zm15.187 0h6.357V17.032h-6.357V37zm0-22.737h6.357V9.115h-6.357v5.148zm17.324 22.971c1.716 0 2.925-.156 3.471-.312v-4.641c-.234 0-.858.039-1.404.039-1.365 0-2.223-.39-2.223-1.95v-9.36h3.627v-3.978h-3.627v-6.318H591.7v6.318h-2.652v3.978h2.652v10.725c0 4.29 2.652 5.499 6.357 5.499zm6.99 6.357h4.134c4.017 0 5.928-1.638 7.527-6.318l6.903-20.241h-6.357l-2.613 8.502c-.624 1.95-1.17 4.602-1.17 4.602h-.078s-.624-2.652-1.248-4.602l-2.691-8.502h-6.708l5.889 15.366c.819 2.106 1.209 3.276 1.209 4.134 0 1.365-.741 2.106-2.613 2.106h-2.184v4.953zm17.652.39c1.833-.117 3.549-.858 4.758-2.145 1.17-1.248 1.833-2.886 1.833-5.343v-6.045h-6.669V37h3.12c0 2.223-1.17 3.783-3.042 4.29v2.691zM20.962 116.056c8.844 0 15.378-3.828 15.378-11.22 0-8.646-6.996-10.164-12.936-11.154-4.29-.792-8.118-1.122-8.118-3.498 0-2.112 2.046-3.102 4.686-3.102 2.97 0 5.016.924 5.412 3.96h9.9c-.528-6.666-5.676-10.824-15.246-10.824-7.986 0-14.586 3.696-14.586 10.824 0 7.92 6.27 9.504 12.144 10.494 4.488.792 8.58 1.122 8.58 4.158 0 2.178-2.046 3.366-5.28 3.366-3.564 0-5.808-1.65-6.204-5.016H4.528c.33 7.458 6.534 12.012 16.434 12.012zm29.158-.198c5.082 0 8.052-1.782 10.032-4.62h.132c.264 1.716.594 3.036 1.122 3.762h10.428v-.462c-.924-.594-1.188-2.112-1.188-4.818V92.692c0-4.224-1.386-7.524-4.29-9.636-2.442-1.848-5.874-2.772-10.956-2.772-10.23 0-15.048 5.346-15.312 11.616h9.9c.33-2.838 2.046-4.356 5.478-4.356 3.234 0 4.62 1.452 4.62 3.63 0 2.31-2.244 2.97-8.58 3.762-6.996.924-12.936 3.168-12.936 10.626 0 6.666 4.818 10.296 11.55 10.296zm3.432-6.864c-2.64 0-4.62-1.056-4.62-3.762 0-2.574 1.716-3.63 5.874-4.554 2.178-.528 4.158-1.056 5.544-1.782v4.026c0 3.63-2.772 6.072-6.798 6.072zm22.787 17.16h6.996c6.798 0 10.032-2.772 12.738-10.692l11.682-34.254H96.997l-4.422 14.388c-1.056 3.3-1.98 7.788-1.98 7.788h-.132s-1.056-4.488-2.112-7.788l-4.554-14.388H72.445l9.966 26.004c1.386 3.564 2.046 5.544 2.046 6.996 0 2.31-1.254 3.564-4.422 3.564h-3.696v8.382zM121.058 115h11.418V93.022c0-1.65-.132-7.722-.132-7.722h.132s2.574 5.082 3.366 6.336L149.702 115h11.748V67.81h-11.418v22.374c0 1.65.132 7.326.132 7.326h-.132s-2.508-4.686-3.234-6.006L132.806 67.81h-11.748V115zm68.308-8.382c-7.59 0-11.484-6.534-11.484-15.114 0-8.58 3.894-15.18 11.484-15.18 7.656 0 11.418 6.6 11.418 15.18s-3.762 15.114-11.418 15.114zm-.066 9.504c14.322 0 23.364-10.494 23.364-24.618 0-14.124-9.042-24.618-23.364-24.618-14.256 0-23.298 10.494-23.298 24.618 0 14.124 9.042 24.618 23.298 24.618zm50.908-.726c2.904 0 4.95-.264 5.874-.528v-7.854c-.396 0-1.452.066-2.376.066-2.31 0-3.762-.66-3.762-3.3V87.94h6.138v-6.732h-6.138V70.516H229.45v10.692h-4.488v6.732h4.488v18.15c0 7.26 4.488 9.306 10.758 9.306zm25.919-6.996c-4.686 0-7.128-4.092-7.128-10.23 0-6.138 2.442-10.296 7.128-10.296s7.194 4.158 7.194 10.296c0 6.138-2.508 10.23-7.194 10.23zm.066 7.656c10.89 0 18.018-7.722 18.018-17.886 0-10.164-7.128-17.886-18.018-17.886-10.824 0-18.084 7.722-18.084 17.886 0 10.164 7.26 17.886 18.084 17.886zm45.3-.66c2.904 0 4.95-.264 5.874-.528v-7.854c-.396 0-1.452.066-2.376.066-2.31 0-3.762-.66-3.762-3.3V87.94h6.138v-6.732h-6.138V70.516h-10.494v10.692h-4.488v6.732h4.488v18.15c0 7.26 4.488 9.306 10.758 9.306zm9.741-.396h10.758V96.322c0-4.158 2.376-7.128 5.94-7.128 3.498 0 5.28 2.442 5.28 6.006V115h10.758V93.022c0-7.524-4.356-12.804-11.748-12.804-4.686 0-7.59 1.914-10.032 5.148h-.198V67.81h-10.758V115zm54.141.99c4.29 0 7.722-1.122 10.56-3.102 2.97-2.046 4.95-4.95 5.676-7.986h-10.494c-.924 2.112-2.772 3.366-5.61 3.366-4.422 0-6.93-2.838-7.59-7.392h24.288c.066-6.864-1.914-12.738-5.94-16.434-2.904-2.64-6.732-4.224-11.55-4.224-10.296 0-17.358 7.722-17.358 17.82 0 10.23 6.864 17.952 18.018 17.952zm-7.392-21.516c.726-4.026 2.838-6.6 6.93-6.6 3.498 0 6.006 2.574 6.402 6.6h-13.332zM406.054 115h10.758V96.322c0-4.158 2.376-7.128 5.94-7.128 3.498 0 5.28 2.442 5.28 6.006V115h10.758V93.022c0-7.524-4.356-12.804-11.748-12.804-4.686 0-7.59 1.914-10.032 5.148h-.198V67.81h-10.758V115zm49.257.99c4.686 0 7.656-1.848 10.098-5.148h.198V115h10.296V81.208h-10.758v18.876c0 4.026-2.244 6.798-5.94 6.798-3.432 0-5.082-2.046-5.082-5.742V81.208h-10.692v22.176c0 7.524 4.092 12.606 11.88 12.606zm40.155.066c8.844 0 15.378-3.828 15.378-11.22 0-8.646-6.996-10.164-12.936-11.154-4.29-.792-8.118-1.122-8.118-3.498 0-2.112 2.046-3.102 4.686-3.102 2.97 0 5.016.924 5.412 3.96h9.9c-.528-6.666-5.676-10.824-15.246-10.824-7.986 0-14.586 3.696-14.586 10.824 0 7.92 6.27 9.504 12.144 10.494 4.488.792 8.58 1.122 8.58 4.158 0 2.178-2.046 3.366-5.28 3.366-3.564 0-5.808-1.65-6.204-5.016h-10.164c.33 7.458 6.534 12.012 16.434 12.012zm31.301-.66c2.904 0 4.95-.264 5.874-.528v-7.854c-.396 0-1.452.066-2.376.066-2.31 0-3.762-.66-3.762-3.3V87.94h6.138v-6.732h-6.138V70.516h-10.494v10.692h-4.488v6.732h4.488v18.15c0 7.26 4.488 9.306 10.758 9.306zm9.807-.396h10.89V67.81h-10.89V115zm32.611.99c4.29 0 7.722-1.122 10.56-3.102 2.97-2.046 4.95-4.95 5.676-7.986h-10.494c-.924 2.112-2.772 3.366-5.61 3.366-4.422 0-6.93-2.838-7.59-7.392h24.288c.066-6.864-1.914-12.738-5.94-16.434-2.904-2.64-6.732-4.224-11.55-4.224-10.296 0-17.358 7.722-17.358 17.82 0 10.23 6.864 17.952 18.018 17.952zm-7.392-21.516c.726-4.026 2.838-6.6 6.93-6.6 3.498 0 6.006 2.574 6.402 6.6h-13.332zM599.403 115h11.286v-11.088h-11.286V115z" fill="#fff"/></g><defs><filter id="filter0_d_103_32" x=".039" y="9.115" width="633.251" height="125.039" filterUnits="userSpaceOnUse" color-interpolation-filters="sRGB"><feFlood flood-opacity="0" result="BackgroundImageFix"/><feColorMatrix in="SourceAlpha" values="0 0 0 0 0 0 0 0 0 0 0 0 0 0 0 0 0 0 127 0" result="hardAlpha"/><feOffset dy="4"/><feGaussianBlur stdDeviation="2"/><feComposite in2="hardAlpha" operator="out"/><feColorMatrix values="0 0 0 0 0 0 0 0 0 0 0 0 0 0 0 0 0 0 0.25 0"/><feBlend in2="BackgroundImageFix" result="effect1_dropShadow_103_32"/><feBlend in="SourceGraphic" in2="effect1_dropShadow_103_32" result="shape"/></filter></defs></svg>