<svg width="229" height="79" viewBox="0 0 229 79" fill="none" xmlns="http://www.w3.org/2000/svg"><g filter="url(#filter0_d_126_7)"><rect x="4" width="221" height="71" rx="35.5" fill="#000"/><path d="M40.372 44.5h13.944v-4.2h-8.988V24.48h-4.956V44.5zm22.415.42c1.82 0 3.276-.476 4.48-1.316 1.26-.868 2.1-2.1 2.408-3.388h-4.452c-.392.896-1.176 1.428-2.38 1.428-1.876 0-2.94-1.204-3.22-3.136h10.304c.028-2.912-.812-5.404-2.52-6.972-1.232-1.12-2.856-1.792-4.9-1.792-4.368 0-7.364 3.276-7.364 7.56 0 4.34 2.912 7.616 7.644 7.616zm-3.136-9.128c.308-1.708 1.204-2.8 2.94-2.8 1.484 0 2.548 1.092 2.716 2.8h-5.656zm16.032 9.072c2.156 0 3.416-.756 4.256-1.96h.056c.112.728.252 1.288.476 1.596h4.424v-.196c-.392-.252-.504-.896-.504-2.044v-7.224c0-1.792-.588-3.192-1.82-4.088-1.036-.784-2.492-1.176-4.648-1.176-4.34 0-6.384 2.268-6.496 4.928h4.2c.14-1.204.868-1.848 2.324-1.848 1.372 0 1.96.616 1.96 1.54 0 .98-.952 1.26-3.64 1.596-2.968.392-5.488 1.344-5.488 4.508 0 2.828 2.044 4.368 4.9 4.368zm1.456-2.912c-1.12 0-1.96-.448-1.96-1.596 0-1.092.728-1.54 2.492-1.932.924-.224 1.764-.448 2.352-.756v1.708c0 1.54-1.176 2.576-2.884 2.576zm9.465 2.548h4.564v-6.44c0-3.108 1.792-4.48 4.592-4.088h.112v-3.92c-.196-.084-.476-.112-.896-.112-1.736 0-2.912.756-3.92 2.464h-.084v-2.24h-4.368V44.5zm10.719 0h4.563v-7.924c0-1.764 1.008-3.024 2.52-3.024 1.484 0 2.24 1.036 2.24 2.548v8.4h4.564v-9.324c0-3.192-1.848-5.432-4.984-5.432-1.988 0-3.36.84-4.424 2.38h-.084v-1.96h-4.395V44.5zm20.596 0h4.452V34.448c0-.812-.084-4.032-.084-4.032h.056s.7 3.024.924 3.752l2.856 10.332h4.088l2.884-10.36c.224-.728.924-3.724.924-3.724h.056s-.084 3.192-.084 4.004V44.5h4.536V24.48h-6.72l-2.464 8.764c-.336 1.26-1.12 4.564-1.12 4.564h-.056s-.784-3.304-1.148-4.564l-2.436-8.764h-6.664V44.5zm30.071-2.8c-1.988 0-3.024-1.736-3.024-4.34s1.036-4.368 3.024-4.368 3.052 1.764 3.052 4.368-1.064 4.34-3.052 4.34zm.028 3.248c4.62 0 7.644-3.276 7.644-7.588s-3.024-7.588-7.644-7.588c-4.592 0-7.672 3.276-7.672 7.588s3.08 7.588 7.672 7.588zm9.187-.448h4.564v-6.44c0-3.108 1.792-4.48 4.592-4.088h.112v-3.92c-.196-.084-.476-.112-.896-.112-1.736 0-2.912.756-3.92 2.464h-.084v-2.24h-4.368V44.5zm17.446.42c1.82 0 3.276-.476 4.48-1.316 1.26-.868 2.1-2.1 2.408-3.388h-4.452c-.392.896-1.176 1.428-2.38 1.428-1.876 0-2.94-1.204-3.22-3.136h10.304c.028-2.912-.812-5.404-2.52-6.972-1.232-1.12-2.856-1.792-4.9-1.792-4.368 0-7.364 3.276-7.364 7.56 0 4.34 2.912 7.616 7.644 7.616zm-3.136-9.128c.308-1.708 1.204-2.8 2.94-2.8 1.484 0 2.548 1.092 2.716 2.8h-5.656zm13.232 2.156h2.352l1.176-8.736V24.48h-4.704v4.732l1.176 8.736zm-1.204 6.552h4.76v-4.704h-4.76V44.5z" fill="#fff"/></g><defs><filter id="filter0_d_126_7" x="0" y="0" width="229" height="79" filterUnits="userSpaceOnUse" color-interpolation-filters="sRGB"><feFlood flood-opacity="0" result="BackgroundImageFix"/><feColorMatrix in="SourceAlpha" values="0 0 0 0 0 0 0 0 0 0 0 0 0 0 0 0 0 0 127 0" result="hardAlpha"/><feOffset dy="4"/><feGaussianBlur stdDeviation="2"/><feComposite in2="hardAlpha" operator="out"/><feColorMatrix values="0 0 0 0 0 0 0 0 0 0 0 0 0 0 0 0 0 0 0.25 0"/><feBlend in2="BackgroundImageFix" result="effect1_dropShadow_126_7"/><feBlend in="SourceGraphic" in2="effect1_dropShadow_126_7" result="shape"/></filter></defs></svg>