<svg width="223" height="140" viewBox="0 0 223 140" fill="none" xmlns="http://www.w3.org/2000/svg"><g filter="url(#filter0_d_127_8)" fill="#fff"><path d="M10.41 18.65h4.612v-6.887L21.328 0h-4.873l-2.371 4.825a60.941 60.941 0 00-1.277 2.843h-.052s-.6-1.565-1.225-2.843L9.133 0H4.104l6.306 11.763v6.886zM25.884 16.04c-1.85 0-2.814-1.616-2.814-4.042 0-2.426.964-4.069 2.814-4.069s2.84 1.643 2.84 4.07c0 2.425-.99 4.042-2.84 4.042zm.026 3.027c4.3 0 7.113-3.052 7.113-7.069 0-4.017-2.814-7.068-7.113-7.068-4.273 0-7.14 3.051-7.14 7.068 0 4.017 2.867 7.069 7.14 7.069zM39.045 19.04c1.85 0 3.023-.73 3.987-2.034h.078v1.643h4.065V5.295h-4.247v7.46c0 1.59-.886 2.686-2.345 2.686-1.355 0-2.007-.809-2.007-2.27V5.296h-4.221v8.764c0 2.973 1.616 4.981 4.69 4.981zM57.199 18.988c2.006 0 3.178-.704 3.96-1.826h.052c.105.679.235 1.2.443 1.487h4.117v-.182c-.365-.235-.469-.835-.469-1.904v-6.73c0-1.67-.547-2.973-1.694-3.808-.964-.73-2.319-1.095-4.325-1.095-4.039 0-5.94 2.112-6.045 4.59h3.908c.13-1.121.808-1.721 2.163-1.721 1.277 0 1.824.574 1.824 1.434 0 .913-.886 1.174-3.387 1.487-2.762.365-5.107 1.252-5.107 4.2 0 2.634 1.902 4.068 4.56 4.068zm1.355-2.712c-1.043 0-1.825-.418-1.825-1.487 0-1.017.678-1.435 2.32-1.8.86-.209 1.641-.417 2.188-.704v1.591c0 1.435-1.094 2.4-2.684 2.4zM67.361 18.65h4.247v-6c0-2.895 1.668-4.173 4.274-3.808h.104V5.19c-.183-.078-.443-.104-.834-.104-1.615 0-2.71.704-3.648 2.295h-.078V5.295h-4.065v13.354zM83.596 19.04c1.694 0 3.048-.443 4.169-1.226 1.172-.808 1.954-1.956 2.24-3.155h-4.142c-.365.834-1.095 1.33-2.215 1.33-1.746 0-2.736-1.122-2.997-2.921h9.59c.025-2.713-.756-5.035-2.346-6.495-1.146-1.043-2.658-1.67-4.56-1.67-4.065 0-6.853 3.052-6.853 7.043 0 4.043 2.71 7.094 7.114 7.094zm-2.919-8.503c.287-1.59 1.12-2.608 2.736-2.608 1.381 0 2.371 1.017 2.528 2.608h-5.264zM95.708 18.65h4.247v-7.487c0-1.59.782-2.712 2.111-2.712 1.277 0 1.876.834 1.876 2.269v7.93h4.247v-7.487c0-1.59.756-2.712 2.111-2.712 1.277 0 1.876.834 1.876 2.269v7.93h4.247V9.963c0-3-1.511-5.06-4.534-5.06-1.719 0-3.152.73-4.195 2.347h-.052c-.677-1.435-2.006-2.347-3.752-2.347-1.928 0-3.205.912-4.039 2.295h-.078V5.295h-4.065v13.354zM124.869 16.04c-1.85 0-2.814-1.616-2.814-4.042 0-2.426.964-4.069 2.814-4.069s2.841 1.643 2.841 4.07c0 2.425-.991 4.042-2.841 4.042zm.026 3.027c4.3 0 7.114-3.052 7.114-7.069 0-4.017-2.814-7.068-7.114-7.068-4.273 0-7.139 3.051-7.139 7.068 0 4.017 2.866 7.069 7.139 7.069zM133.445 18.65h4.247v-6c0-2.895 1.668-4.173 4.273-3.808h.105V5.19c-.183-.078-.443-.104-.834-.104-1.616 0-2.71.704-3.648 2.295h-.078V5.295h-4.065v13.354zM149.679 19.04c1.694 0 3.049-.443 4.17-1.226 1.172-.808 1.954-1.956 2.24-3.155h-4.143c-.364.834-1.094 1.33-2.214 1.33-1.746 0-2.736-1.122-2.997-2.921h9.589c.026-2.713-.756-5.035-2.345-6.495-1.147-1.043-2.658-1.67-4.56-1.67-4.065 0-6.853 3.052-6.853 7.043 0 4.043 2.71 7.094 7.113 7.094zm-2.918-8.503c.287-1.59 1.12-2.608 2.736-2.608 1.381 0 2.371 1.017 2.528 2.608h-5.264zM167.081 18.806c1.147 0 1.955-.105 2.319-.209v-3.104c-.156 0-.573.026-.938.026-.912 0-1.485-.26-1.485-1.304v-6.26h2.423v-2.66h-2.423V1.069h-4.143v4.226h-1.772v2.66h1.772v7.173c0 2.87 1.772 3.678 4.247 3.678zM170.927 18.65h4.247v-7.382c0-1.643.938-2.817 2.345-2.817 1.381 0 2.085.965 2.085 2.373v7.825h4.247V9.964c0-2.974-1.72-5.06-4.638-5.06-1.85 0-2.996.756-3.961 2.034h-.078V0h-4.247v18.65zM189.722 18.988c2.006 0 3.179-.704 3.961-1.826h.052c.104.679.234 1.2.443 1.487h4.117v-.182c-.365-.235-.469-.835-.469-1.904v-6.73c0-1.67-.547-2.973-1.694-3.808-.964-.73-2.319-1.095-4.325-1.095-4.039 0-5.941 2.112-6.046 4.59h3.909c.13-1.121.808-1.721 2.163-1.721 1.276 0 1.824.574 1.824 1.434 0 .913-.886 1.174-3.388 1.487-2.762.365-5.107 1.252-5.107 4.2 0 2.634 1.902 4.068 4.56 4.068zm1.355-2.712c-1.042 0-1.824-.418-1.824-1.487 0-1.017.678-1.435 2.319-1.8.86-.209 1.642-.417 2.189-.704v1.591c0 1.435-1.094 2.4-2.684 2.4zM199.885 18.65h4.247v-7.382c0-1.643.938-2.817 2.345-2.817 1.381 0 2.085.965 2.085 2.373v7.825h4.247V9.964c0-2.974-1.72-5.06-4.638-5.06-1.85 0-3.127.782-4.117 2.217h-.078V5.295h-4.091v13.354zM5.537 52.697H8.3c2.684 0 3.961-1.096 5.03-4.226l4.611-13.537h-4.247l-1.746 5.686c-.417 1.304-.781 3.078-.781 3.078h-.053s-.416-1.774-.833-3.078l-1.798-5.686H4l3.935 10.277c.547 1.408.807 2.19.807 2.765 0 .913-.495 1.408-1.745 1.408h-1.46v3.313zM24.892 45.68c-1.85 0-2.815-1.617-2.815-4.042 0-2.426.964-4.07 2.814-4.07s2.84 1.644 2.84 4.07c0 2.425-.99 4.042-2.84 4.042zm.026 3.026c4.299 0 7.113-3.052 7.113-7.069 0-4.016-2.814-7.068-7.113-7.068-4.274 0-7.14 3.052-7.14 7.069 0 4.016 2.866 7.068 7.14 7.068zM38.053 48.68c1.85 0 3.023-.73 3.987-2.035h.078v1.644h4.065V34.934h-4.248v7.46c0 1.591-.886 2.687-2.345 2.687-1.355 0-2.006-.81-2.006-2.27v-7.877h-4.221v8.764c0 2.974 1.615 4.982 4.69 4.982zM48.226 48.289h4.247v-6c0-2.895 1.668-4.173 4.273-3.808h.104V34.83c-.182-.078-.443-.104-.833-.104-1.616 0-2.71.704-3.648 2.295h-.078v-2.087h-4.065V48.29zM62.246 52.697h4.248v-5.79h.052c.834 1.12 2.058 1.799 3.778 1.799 3.492 0 5.81-2.765 5.81-7.095 0-4.016-2.162-7.068-5.706-7.068-1.824 0-3.126.809-4.038 2.008h-.079v-1.617h-4.065v17.763zm6.984-7.278c-1.824 0-2.867-1.486-2.867-3.651s.939-3.808 2.788-3.808c1.825 0 2.684 1.513 2.684 3.808 0 2.27-.99 3.651-2.605 3.651zM77.565 48.289h4.247v-6c0-2.895 1.668-4.173 4.274-3.808h.104V34.83c-.183-.078-.443-.104-.834-.104-1.615 0-2.71.704-3.648 2.295h-.078v-2.087h-4.065V48.29zM93.8 45.68c-1.85 0-2.814-1.617-2.814-4.042 0-2.426.964-4.07 2.814-4.07s2.84 1.644 2.84 4.07c0 2.425-.99 4.042-2.84 4.042zm.026 3.026c4.3 0 7.113-3.052 7.113-7.069 0-4.016-2.814-7.068-7.113-7.068-4.274 0-7.14 3.052-7.14 7.069 0 4.016 2.866 7.068 7.14 7.068zM107.612 48.706c1.746 0 3.127-.835 3.935-2.217h.052v1.8h4.065v-18.65h-4.247v6.808h-.078c-.782-1.122-1.85-1.904-3.727-1.904-3.439 0-5.836 2.895-5.836 7.069 0 4.46 2.423 7.094 5.836 7.094zm1.095-3.365c-1.642 0-2.632-1.46-2.632-3.782 0-2.243.99-3.808 2.684-3.808 1.85 0 2.762 1.617 2.762 3.86 0 2.191-1.042 3.73-2.814 3.73zM122.28 48.68c1.85 0 3.022-.73 3.986-2.035h.078v1.644h4.065V34.934h-4.247v7.46c0 1.591-.886 2.687-2.345 2.687-1.355 0-2.006-.81-2.006-2.27v-7.877h-4.222v8.764c0 2.974 1.616 4.982 4.691 4.982zM138.941 48.706c3.778 0 6.227-2.4 6.331-5.477h-4.065c-.182 1.512-.99 2.295-2.319 2.295-1.824 0-2.736-1.513-2.736-3.886 0-2.426.912-3.939 2.736-3.939 1.199 0 1.929.782 2.189 1.982h4.091c-.391-3-2.71-5.112-6.332-5.112-4.221 0-6.983 3.052-6.983 7.069 0 4.016 2.788 7.068 7.088 7.068zM151.915 48.445c1.147 0 1.955-.104 2.319-.209v-3.103c-.156 0-.573.026-.938.026-.912 0-1.485-.261-1.485-1.304v-6.26h2.423v-2.66h-2.423v-4.226h-4.143v4.225h-1.772v2.66h1.772v7.173c0 2.87 1.772 3.678 4.247 3.678zM155.761 48.289h4.247V34.934h-4.247V48.29zm0-15.207h4.247V29.64h-4.247v3.442zM165.564 48.289h4.586l4.612-13.355h-4.247l-1.85 6.025c-.391 1.33-.73 2.687-.73 2.687h-.052s-.339-1.356-.73-2.687l-1.824-6.025h-4.377l4.612 13.355zM175.711 48.289h4.247V34.934h-4.247V48.29zm0-15.207h4.247V29.64h-4.247v3.442zM187.286 48.445c1.146 0 1.954-.104 2.319-.209v-3.103c-.157 0-.574.026-.938.026-.912 0-1.486-.261-1.486-1.304v-6.26h2.424v-2.66h-2.424v-4.226h-4.143v4.225h-1.772v2.66h1.772v7.173c0 2.87 1.772 3.678 4.248 3.678zM191.956 52.697h2.762c2.684 0 3.961-1.096 5.029-4.226l4.612-13.537h-4.247l-1.746 5.686c-.417 1.304-.782 3.078-.782 3.078h-.052s-.417-1.774-.834-3.078l-1.798-5.686h-4.481l3.934 10.277c.547 1.408.808 2.19.808 2.765 0 .913-.495 1.408-1.746 1.408h-1.459v3.313zM203.749 52.957c1.225-.078 2.372-.573 3.179-1.434.782-.835 1.225-1.93 1.225-3.573v-4.043h-4.456v4.382h2.085c0 1.486-.782 2.53-2.033 2.869v1.8zM15.645 90.505c6.031 0 10.487-2.613 10.487-7.66 0-5.9-4.771-6.937-8.822-7.613-2.925-.54-5.536-.766-5.536-2.388 0-1.441 1.396-2.117 3.196-2.117 2.025 0 3.42.63 3.69 2.703h6.752c-.36-4.55-3.871-7.389-10.397-7.389-5.446 0-9.947 2.523-9.947 7.389 0 5.406 4.276 6.487 8.282 7.163 3.06.54 5.85.766 5.85 2.839 0 1.486-1.395 2.297-3.6 2.297-2.43 0-3.96-1.126-4.23-3.424H4.437c.225 5.091 4.456 8.2 11.207 8.2zM35.529 90.37c3.465 0 5.49-1.217 6.84-3.154h.09c.18 1.171.406 2.072.766 2.568h7.111v-.316c-.63-.405-.81-1.441-.81-3.288V74.556c0-2.883-.945-5.136-2.925-6.577-1.666-1.262-4.006-1.892-7.472-1.892-6.976 0-10.261 3.649-10.441 7.929h6.75c.226-1.938 1.396-2.974 3.736-2.974 2.206 0 3.15.991 3.15 2.478 0 1.577-1.53 2.028-5.85 2.568-4.77.63-8.821 2.163-8.821 7.254 0 4.55 3.285 7.028 7.876 7.028zm2.34-4.686c-1.8 0-3.15-.72-3.15-2.568 0-1.757 1.17-2.478 4.005-3.108 1.486-.36 2.836-.721 3.78-1.217v2.748c0 2.478-1.89 4.145-4.635 4.145zM53.408 97.398h4.77c4.637 0 6.842-1.892 8.687-7.299l7.966-23.382h-7.336L64.48 76.54c-.72 2.252-1.35 5.316-1.35 5.316h-.09s-.72-3.064-1.44-5.316l-3.106-9.822h-7.742l6.797 17.75c.945 2.434 1.395 3.785 1.395 4.776 0 1.577-.855 2.433-3.016 2.433h-2.52v5.722zM83.903 89.784h7.787V74.782c0-1.127-.09-5.272-.09-5.272h.09s1.755 3.47 2.295 4.325l9.452 15.949h8.011V57.572h-7.786v15.272c0 1.127.09 5.001.09 5.001h-.09s-1.711-3.199-2.206-4.1l-9.541-16.173h-8.012v32.212zM130.484 84.062c-5.175 0-7.831-4.46-7.831-10.317 0-5.856 2.656-10.362 7.831-10.362 5.221 0 7.787 4.506 7.787 10.362 0 5.857-2.566 10.317-7.787 10.317zm-.045 6.488c9.767 0 15.933-7.163 15.933-16.805 0-9.64-6.166-16.804-15.933-16.804-9.721 0-15.887 7.163-15.887 16.804 0 9.641 6.166 16.805 15.887 16.805zM165.155 90.054c1.981 0 3.376-.18 4.006-.36v-5.361c-.27 0-.99.045-1.62.045-1.575 0-2.566-.45-2.566-2.253V71.313h4.186v-4.596h-4.186V59.42h-7.156v7.298h-3.06v4.596h3.06v12.389c0 4.956 3.061 6.352 7.336 6.352zM182.83 85.279c-3.196 0-4.861-2.793-4.861-6.983 0-4.19 1.665-7.029 4.861-7.029 3.195 0 4.906 2.839 4.906 7.029 0 4.19-1.711 6.983-4.906 6.983zm.045 5.226c7.426 0 12.287-5.271 12.287-12.21 0-6.937-4.861-12.209-12.287-12.209-7.381 0-12.332 5.272-12.332 12.21 0 6.938 4.951 12.209 12.332 12.209zM14.97 131.549c1.98 0 3.376-.18 4.006-.36v-5.361c-.27 0-.99.045-1.62.045-1.576 0-2.566-.451-2.566-2.253v-10.812h4.186v-4.595H14.79v-7.299H7.634v7.299h-3.06v4.595h3.06v12.389c0 4.956 3.06 6.352 7.336 6.352zM21.612 131.279h7.337v-12.75c0-2.838 1.62-4.865 4.05-4.865 2.386 0 3.6 1.667 3.6 4.1v13.515h7.337v-15.002c0-5.136-2.97-8.74-8.011-8.74-3.196 0-5.176 1.306-6.841 3.514h-.135V99.067h-7.337v32.212zM58.532 131.955c2.926 0 5.266-.766 7.202-2.117 2.025-1.397 3.375-3.379 3.87-5.452h-7.156c-.63 1.442-1.89 2.298-3.825 2.298-3.016 0-4.726-1.937-5.176-5.046h16.562c.045-4.685-1.305-8.695-4.05-11.218-1.98-1.802-4.591-2.883-7.877-2.883-7.02 0-11.837 5.271-11.837 12.164 0 6.983 4.681 12.254 12.287 12.254zm-5.04-14.687c.495-2.748 1.935-4.505 4.725-4.505 2.386 0 4.096 1.757 4.366 4.505h-9.091zM79.454 131.279h7.336v-12.75c0-2.838 1.62-4.865 4.05-4.865 2.386 0 3.601 1.667 3.601 4.1v13.515h7.336v-15.002c0-5.136-2.97-8.74-8.01-8.74-3.196 0-5.177 1.306-6.842 3.514h-.135V99.067h-7.336v32.212zM113.043 131.955c3.196 0 5.221-1.262 6.886-3.514h.135v2.838h7.022v-23.066h-7.337v12.884c0 2.749-1.53 4.641-4.05 4.641-2.341 0-3.466-1.397-3.466-3.92v-13.605h-7.291v15.137c0 5.136 2.79 8.605 8.101 8.605zM140.426 132c6.031 0 10.487-2.613 10.487-7.659 0-5.902-4.771-6.938-8.822-7.614-2.925-.54-5.536-.766-5.536-2.387 0-1.442 1.396-2.118 3.196-2.118 2.025 0 3.42.631 3.691 2.703h6.751c-.36-4.55-3.871-7.388-10.397-7.388-5.446 0-9.947 2.523-9.947 7.388 0 5.407 4.276 6.488 8.282 7.164 3.06.54 5.851.765 5.851 2.838 0 1.487-1.396 2.297-3.601 2.297-2.43 0-3.961-1.126-4.231-3.423h-6.931c.225 5.09 4.456 8.199 11.207 8.199zM161.771 131.549c1.98 0 3.376-.18 4.006-.36v-5.361c-.27 0-.99.045-1.621.045-1.575 0-2.565-.451-2.565-2.253v-10.812h4.186v-4.595h-4.186v-7.299h-7.156v7.299h-3.061v4.595h3.061v12.389c0 4.956 3.06 6.352 7.336 6.352zM168.459 131.279h7.426V99.067h-7.426v32.212zM190.697 131.955c2.926 0 5.266-.766 7.202-2.117 2.025-1.397 3.375-3.379 3.87-5.452h-7.156c-.63 1.442-1.89 2.298-3.826 2.298-3.015 0-4.725-1.937-5.175-5.046h16.562c.045-4.685-1.305-8.695-4.05-11.218-1.981-1.802-4.591-2.883-7.877-2.883-7.021 0-11.837 5.271-11.837 12.164 0 6.983 4.681 12.254 12.287 12.254zm-5.04-14.687c.495-2.748 1.935-4.505 4.725-4.505 2.386 0 4.096 1.757 4.366 4.505h-9.091zM211.304 131.279H219v-7.569h-7.696v7.569z"/></g><defs><filter id="filter0_d_127_8" x="0" y="0" width="223" height="140" filterUnits="userSpaceOnUse" color-interpolation-filters="sRGB"><feFlood flood-opacity="0" result="BackgroundImageFix"/><feColorMatrix in="SourceAlpha" values="0 0 0 0 0 0 0 0 0 0 0 0 0 0 0 0 0 0 127 0" result="hardAlpha"/><feOffset dy="4"/><feGaussianBlur stdDeviation="2"/><feComposite in2="hardAlpha" operator="out"/><feColorMatrix values="0 0 0 0 0 0 0 0 0 0 0 0 0 0 0 0 0 0 0.25 0"/><feBlend in2="BackgroundImageFix" result="effect1_dropShadow_127_8"/><feBlend in="SourceGraphic" in2="effect1_dropShadow_127_8" result="shape"/></filter></defs></svg>