<svg width="131" height="42" viewBox="0 0 131 42" fill="none" xmlns="http://www.w3.org/2000/svg"><rect width="131" height="42" rx="21" fill="#D7181D"/><path d="M14.931 27.5h9.462v-2.85h-6.099V13.915h-3.363V27.5zm15.21.285c1.235 0 2.223-.323 3.04-.893.855-.589 1.425-1.425 1.634-2.299h-3.02c-.267.608-.799.969-1.616.969-1.273 0-1.995-.817-2.185-2.128h6.992c.02-1.976-.55-3.667-1.71-4.731-.836-.76-1.938-1.216-3.325-1.216-2.964 0-4.997 2.223-4.997 5.13 0 2.945 1.976 5.168 5.187 5.168zm-2.128-6.194c.21-1.159.817-1.9 1.995-1.9 1.007 0 1.73.741 1.843 1.9h-3.838zm10.88 6.156c1.462 0 2.317-.513 2.887-1.33h.038c.076.494.171.874.323 1.083h3.002v-.133c-.266-.171-.342-.608-.342-1.387v-4.902c0-1.216-.399-2.166-1.235-2.774-.703-.532-1.69-.798-3.154-.798-2.945 0-4.332 1.539-4.408 3.344h2.85c.095-.817.59-1.254 1.577-1.254.931 0 1.33.418 1.33 1.045 0 .665-.646.855-2.47 1.083-2.014.266-3.724.912-3.724 3.059 0 1.919 1.387 2.964 3.325 2.964zm.987-1.976c-.76 0-1.33-.304-1.33-1.083 0-.741.494-1.045 1.691-1.311.627-.152 1.197-.304 1.596-.513v1.159c0 1.045-.798 1.748-1.957 1.748zm6.422 1.729H49.4v-4.37c0-2.109 1.215-3.04 3.116-2.774h.076v-2.66c-.133-.057-.323-.076-.608-.076-1.178 0-1.977.513-2.66 1.672h-.057v-1.52h-2.965V27.5zm7.274 0h3.097v-5.377c0-1.197.684-2.052 1.71-2.052 1.007 0 1.52.703 1.52 1.729v5.7H63v-6.327c0-2.166-1.254-3.686-3.382-3.686-1.349 0-2.28.57-3.002 1.615h-.057v-1.33h-2.983V27.5zm13.976 0h3.021v-6.821c0-.551-.057-2.736-.057-2.736h.038s.475 2.052.627 2.546L73.12 27.5h2.774l1.957-7.03c.152-.494.627-2.527.627-2.527h.038s-.057 2.166-.057 2.717v6.84h3.078V13.915h-4.56l-1.672 5.947c-.228.855-.76 3.097-.76 3.097h-.038s-.532-2.242-.779-3.097l-1.653-5.947h-4.522V27.5zm20.406-1.9c-1.35 0-2.052-1.178-2.052-2.945s.703-2.964 2.052-2.964c1.349 0 2.07 1.197 2.07 2.964s-.721 2.945-2.07 2.945zm.019 2.204c3.135 0 5.187-2.223 5.187-5.149s-2.052-5.149-5.187-5.149c-3.116 0-5.206 2.223-5.206 5.149s2.09 5.149 5.206 5.149zm6.234-.304h3.097v-4.37c0-2.109 1.216-3.04 3.116-2.774h.076v-2.66c-.133-.057-.323-.076-.608-.076-1.178 0-1.976.513-2.66 1.672h-.057v-1.52H94.21V27.5zm11.838.285c1.235 0 2.223-.323 3.04-.893.855-.589 1.425-1.425 1.634-2.299h-3.021c-.266.608-.798.969-1.615.969-1.273 0-1.995-.817-2.185-2.128h6.992c.019-1.976-.551-3.667-1.71-4.731-.836-.76-1.938-1.216-3.325-1.216-2.964 0-4.997 2.223-4.997 5.13 0 2.945 1.976 5.168 5.187 5.168zm-2.128-6.194c.209-1.159.817-1.9 1.995-1.9 1.007 0 1.729.741 1.843 1.9h-3.838zm8.978 1.463h1.596l.798-5.928v-3.211h-3.192v3.211l.798 5.928zm-.817 4.446h3.23v-3.192h-3.23V27.5z" fill="#fff"/></svg>