<svg width="159" height="28" viewBox="0 0 159 28" fill="none" xmlns="http://www.w3.org/2000/svg"><path d="M5.678 13.289c2.805 0 4.981-1.411 4.981-3.961 0-2.601-2.04-3.298-4.301-3.825-1.819-.408-2.754-.612-2.754-1.462 0-.68.697-1.139 1.751-1.139 1.122 0 1.836.527 1.955 1.462h2.941c-.119-2.55-2.159-3.74-4.794-3.74-2.72 0-4.828 1.139-4.828 3.74 0 2.55 2.227 3.196 4.335 3.689 1.666.408 2.652.612 2.652 1.581 0 .918-.969 1.275-1.955 1.275-1.445 0-2.244-.51-2.38-1.734H.255c.068 2.686 2.193 4.114 5.423 4.114zm8.609-.068c1.309 0 2.074-.459 2.584-1.19h.034c.068.442.153.782.289.969h2.686v-.119c-.238-.153-.306-.544-.306-1.241V7.254c0-1.088-.357-1.938-1.105-2.482-.63-.476-1.513-.714-2.822-.714-2.635 0-3.876 1.377-3.944 2.992h2.55c.085-.731.527-1.122 1.41-1.122.834 0 1.19.374 1.19.935 0 .595-.577.765-2.21.969-1.801.238-3.331.816-3.331 2.737 0 1.717 1.24 2.652 2.975 2.652zm.884-1.768c-.68 0-1.19-.272-1.19-.969 0-.663.442-.935 1.513-1.173.56-.136 1.07-.272 1.428-.459v1.037c0 .935-.714 1.564-1.751 1.564zm5.869 4.42h1.802c1.75 0 2.584-.714 3.28-2.754l3.01-8.823H26.36l-1.14 3.706c-.271.85-.51 2.006-.51 2.006h-.033s-.272-1.156-.544-2.006L22.96 4.296h-2.924l2.567 6.698c.357.918.527 1.428.527 1.802 0 .595-.323.918-1.14.918h-.951v2.159zM32.559 13h2.94V7.339c0-.425-.033-1.989-.033-1.989h.034s.663 1.309.867 1.632L39.937 13h3.026V.845h-2.941v5.763c0 .425.034 1.887.034 1.887h-.034s-.646-1.207-.833-1.547L35.585.845h-3.026V13zm17.594-2.159c-1.955 0-2.958-1.683-2.958-3.893s1.003-3.91 2.958-3.91c1.972 0 2.94 1.7 2.94 3.91s-.968 3.893-2.94 3.893zm-.017 2.448c3.689 0 6.018-2.703 6.018-6.341 0-3.638-2.33-6.341-6.018-6.341-3.672 0-6.001 2.703-6.001 6.341 0 3.638 2.329 6.341 6 6.341zm13.113-.187c.748 0 1.275-.068 1.513-.136v-2.023c-.102 0-.374.017-.612.017-.595 0-.97-.17-.97-.85V6.03h1.582V4.296H63.18V1.542h-2.703v2.754h-1.156V6.03h1.156v4.675c0 1.87 1.156 2.397 2.77 2.397zm6.676-1.802c-1.207 0-1.836-1.054-1.836-2.635 0-1.581.629-2.652 1.836-2.652s1.853 1.071 1.853 2.652c0 1.581-.646 2.635-1.853 2.635zm.017 1.972c2.805 0 4.64-1.989 4.64-4.607 0-2.618-1.835-4.607-4.64-4.607-2.788 0-4.658 1.989-4.658 4.607 0 2.618 1.87 4.607 4.658 4.607zm11.668-.17c.748 0 1.275-.068 1.513-.136v-2.023c-.102 0-.374.017-.612.017-.595 0-.969-.17-.969-.85V6.03h1.581V4.296h-1.58V1.542h-2.704v2.754h-1.156V6.03h1.156v4.675c0 1.87 1.156 2.397 2.771 2.397zM84.12 13h2.77V8.189c0-1.071.612-1.836 1.53-1.836.901 0 1.36.629 1.36 1.547V13h2.771V7.339c0-1.938-1.122-3.298-3.026-3.298-1.207 0-1.955.493-2.584 1.326h-.05V.845h-2.772V13zm13.944.255c1.105 0 1.989-.289 2.72-.799.765-.527 1.275-1.275 1.462-2.057h-2.703c-.238.544-.714.867-1.445.867-1.139 0-1.785-.731-1.955-1.904h6.256c.017-1.768-.493-3.281-1.53-4.233-.748-.68-1.734-1.088-2.975-1.088-2.652 0-4.47 1.989-4.47 4.59 0 2.635 1.767 4.624 4.64 4.624zM96.16 7.713c.187-1.037.731-1.7 1.785-1.7.901 0 1.547.663 1.65 1.7H96.16zM106.137 13h3.009V7.934h4.267V13h3.009V.845h-3.009v4.607h-4.267V.845h-3.009V13zm14.775.255c1.207 0 1.972-.476 2.601-1.326h.051V13h2.652V4.296h-2.771v4.862c0 1.037-.578 1.751-1.53 1.751-.884 0-1.309-.527-1.309-1.479V4.296h-2.754v5.712c0 1.938 1.054 3.247 3.06 3.247zm10.343.017c2.278 0 3.961-.986 3.961-2.89 0-2.227-1.802-2.618-3.332-2.873-1.105-.204-2.091-.289-2.091-.901 0-.544.527-.799 1.207-.799.765 0 1.292.238 1.394 1.02h2.55c-.136-1.717-1.462-2.788-3.927-2.788-2.057 0-3.757.952-3.757 2.788 0 2.04 1.615 2.448 3.128 2.703 1.156.204 2.21.289 2.21 1.071 0 .561-.527.867-1.36.867-.918 0-1.496-.425-1.598-1.292h-2.618c.085 1.921 1.683 3.094 4.233 3.094zm8.062-.17c.748 0 1.275-.068 1.513-.136v-2.023c-.102 0-.374.017-.612.017-.595 0-.969-.17-.969-.85V6.03h1.581V4.296h-1.581V1.542h-2.703v2.754h-1.156V6.03h1.156v4.675c0 1.87 1.156 2.397 2.771 2.397zm2.526-.102h2.805V.845h-2.805V13zm8.4.255c1.105 0 1.989-.289 2.72-.799.765-.527 1.275-1.275 1.462-2.057h-2.703c-.238.544-.714.867-1.445.867-1.139 0-1.785-.731-1.955-1.904h6.256c.017-1.768-.493-3.281-1.53-4.233-.748-.68-1.734-1.088-2.975-1.088-2.652 0-4.471 1.989-4.471 4.59 0 2.635 1.768 4.624 4.641 4.624zm-1.904-5.542c.187-1.037.731-1.7 1.785-1.7.901 0 1.547.663 1.649 1.7h-3.434zM155.304 13h2.907v-2.856h-2.907V13zM.36 26h1.485v-6.435H.36V26zm4.447.135c.585 0 1.053-.153 1.44-.423.405-.279.675-.675.774-1.089H5.59c-.126.288-.378.459-.765.459-.603 0-.945-.387-1.035-1.008h3.312c.009-.936-.26-1.737-.81-2.241-.396-.36-.918-.576-1.575-.576-1.404 0-2.367 1.053-2.367 2.43 0 1.395.936 2.448 2.457 2.448zM3.8 23.201c.1-.549.387-.9.945-.9.477 0 .819.351.873.9H3.799zm5.756 2.943c1.206 0 2.097-.522 2.097-1.53 0-1.179-.954-1.386-1.764-1.521-.585-.108-1.107-.153-1.107-.477 0-.288.28-.423.64-.423.404 0 .683.126.737.54h1.35c-.072-.909-.774-1.476-2.079-1.476-1.089 0-1.989.504-1.989 1.476 0 1.08.855 1.296 1.656 1.431.612.108 1.17.153 1.17.567 0 .297-.279.459-.72.459-.486 0-.792-.225-.846-.684H7.314c.045 1.017.891 1.638 2.241 1.638zm4.58 0c1.205 0 2.096-.522 2.096-1.53 0-1.179-.954-1.386-1.764-1.521-.585-.108-1.107-.153-1.107-.477 0-.288.28-.423.64-.423.404 0 .683.126.737.54h1.35c-.072-.909-.774-1.476-2.079-1.476-1.089 0-1.989.504-1.989 1.476 0 1.08.855 1.296 1.656 1.431.612.108 1.17.153 1.17.567 0 .297-.279.459-.72.459-.486 0-.792-.225-.846-.684h-1.386c.045 1.017.891 1.638 2.241 1.638zm5.932 0c1.206 0 2.097-.522 2.097-1.53 0-1.179-.954-1.386-1.764-1.521-.585-.108-1.107-.153-1.107-.477 0-.288.279-.423.639-.423.405 0 .684.126.738.54h1.35c-.072-.909-.774-1.476-2.08-1.476-1.088 0-1.988.504-1.988 1.476 0 1.08.855 1.296 1.656 1.431.612.108 1.17.153 1.17.567 0 .297-.28.459-.72.459-.486 0-.792-.225-.846-.684h-1.386c.045 1.017.89 1.638 2.24 1.638zM22.649 26h1.485v-6.435H22.65V26zm4.447.135c.585 0 1.053-.153 1.44-.423.405-.279.675-.675.774-1.089h-1.43c-.127.288-.379.459-.766.459-.603 0-.945-.387-1.035-1.008h3.312c.01-.936-.26-1.737-.81-2.241-.396-.36-.918-.576-1.575-.576-1.404 0-2.367 1.053-2.367 2.43 0 1.395.936 2.448 2.457 2.448zm-1.008-2.934c.1-.549.387-.9.945-.9.477 0 .82.351.873.9h-1.818zm6.044 2.934c.585 0 1.053-.153 1.44-.423.405-.279.675-.675.774-1.089h-1.43c-.127.288-.379.459-.766.459-.603 0-.945-.387-1.035-1.008h3.312c.01-.936-.26-1.737-.81-2.241-.396-.36-.918-.576-1.575-.576-1.404 0-2.367 1.053-2.367 2.43 0 1.395.936 2.448 2.457 2.448zm-1.008-2.934c.1-.549.387-.9.945-.9.477 0 .82.351.873.9h-1.818zm3.794 4.32h1.467v-1.998h.018c.288.387.711.621 1.305.621 1.206 0 2.007-.954 2.007-2.448 0-1.386-.747-2.439-1.97-2.439-.63 0-1.08.279-1.396.693h-.027v-.558h-1.404v6.129zm2.412-2.511c-.63 0-.99-.513-.99-1.26s.324-1.314.963-1.314c.63 0 .927.522.927 1.314 0 .783-.342 1.26-.9 1.26zm5.843.279h1.26v-1.665h1.557v-1.179h-1.557v-1.656h-1.26v1.656h-1.557v1.179h1.557v1.665zm4.929.711h1.467v-2.583c0-.549.27-.936.729-.936.441 0 .648.288.648.783V26h1.467v-2.583c0-.549.261-.936.729-.936.441 0 .648.288.648.783V26h1.467v-2.997c0-1.035-.522-1.746-1.566-1.746-.594 0-1.089.252-1.449.81h-.018c-.234-.495-.693-.81-1.296-.81-.666 0-1.107.315-1.395.792h-.027v-.657h-1.404V26zm10.072-.9c-.639 0-.972-.558-.972-1.395s.333-1.404.972-1.404c.64 0 .981.567.981 1.404s-.342 1.395-.98 1.395zm.01 1.044c1.484 0 2.456-1.053 2.456-2.439 0-1.386-.972-2.439-2.457-2.439-1.476 0-2.466 1.053-2.466 2.439 0 1.386.99 2.439 2.466 2.439zM61.135 26h1.467v-2.07c0-.999.576-1.44 1.476-1.314h.036v-1.26a.769.769 0 00-.288-.036c-.558 0-.936.243-1.26.792h-.027v-.72h-1.404V26zm5.608.135c.585 0 1.053-.153 1.44-.423.405-.279.675-.675.774-1.089h-1.431c-.126.288-.378.459-.765.459-.603 0-.945-.387-1.035-1.008h3.312c.009-.936-.261-1.737-.81-2.241-.396-.36-.918-.576-1.575-.576-1.404 0-2.367 1.053-2.367 2.43 0 1.395.936 2.448 2.457 2.448zm-1.008-2.934c.099-.549.387-.9.945-.9.477 0 .819.351.873.9h-1.818zm7.153 2.943c1.206 0 2.097-.522 2.097-1.53 0-1.179-.954-1.386-1.764-1.521-.585-.108-1.107-.153-1.107-.477 0-.288.28-.423.64-.423.404 0 .683.126.737.54h1.35c-.072-.909-.774-1.476-2.079-1.476-1.089 0-1.989.504-1.989 1.476 0 1.08.855 1.296 1.656 1.431.612.108 1.17.153 1.17.567 0 .297-.279.459-.72.459-.486 0-.792-.225-.846-.684h-1.386c.045 1.017.891 1.638 2.241 1.638zm4.269-.09c.395 0 .674-.036.8-.072v-1.071c-.053 0-.198.009-.323.009-.316 0-.514-.09-.514-.45v-2.16h.838v-.918h-.838v-1.458h-1.43v1.458h-.612v.918h.612v2.475c0 .99.611 1.269 1.466 1.269zM78.486 26h1.467v-2.07c0-.999.576-1.44 1.476-1.314h.036v-1.26a.769.769 0 00-.288-.036c-.558 0-.936.243-1.26.792h-.027v-.72h-1.404V26zm5.607.135c.585 0 1.053-.153 1.44-.423.405-.279.675-.675.774-1.089h-1.43c-.127.288-.379.459-.766.459-.603 0-.945-.387-1.035-1.008h3.312c.01-.936-.26-1.737-.81-2.241-.396-.36-.918-.576-1.575-.576-1.404 0-2.367 1.053-2.367 2.43 0 1.395.936 2.448 2.457 2.448zm-1.008-2.934c.1-.549.387-.9.945-.9.477 0 .82.351.873.9h-1.818zm5.756 2.943c1.206 0 2.097-.522 2.097-1.53 0-1.179-.954-1.386-1.764-1.521-.585-.108-1.107-.153-1.107-.477 0-.288.28-.423.64-.423.404 0 .683.126.737.54h1.35c-.072-.909-.774-1.476-2.079-1.476-1.089 0-1.989.504-1.989 1.476 0 1.08.855 1.296 1.656 1.431.612.108 1.17.153 1.17.567 0 .297-.279.459-.72.459-.486 0-.792-.225-.846-.684H86.6c.045 1.017.891 1.638 2.241 1.638zm4.58 0c1.205 0 2.096-.522 2.096-1.53 0-1.179-.954-1.386-1.764-1.521-.585-.108-1.107-.153-1.107-.477 0-.288.28-.423.64-.423.404 0 .683.126.737.54h1.35c-.072-.909-.774-1.476-2.079-1.476-1.089 0-1.989.504-1.989 1.476 0 1.08.855 1.296 1.656 1.431.612.108 1.17.153 1.17.567 0 .297-.279.459-.72.459-.486 0-.792-.225-.846-.684H91.18c.045 1.017.891 1.638 2.241 1.638zm4.078-1.404h4.212v-1.143h-4.212v1.143zm0-1.908h4.212v-1.143h-4.212v1.143zM104.904 26h1.359l.549-2.088c.099-.36.207-.828.207-.828h.018s.099.468.198.828l.54 2.088h1.377l1.413-4.608h-1.449l-.513 1.908c-.099.369-.216.9-.216.9h-.018s-.117-.531-.216-.927l-.504-1.881h-1.242l-.486 1.881c-.099.387-.207.918-.207.918h-.018s-.108-.522-.207-.891l-.504-1.908h-1.494L104.904 26zm8.079-.9c-.639 0-.972-.558-.972-1.395s.333-1.404.972-1.404.981.567.981 1.404-.342 1.395-.981 1.395zm.009 1.044c1.485 0 2.457-1.053 2.457-2.439 0-1.386-.972-2.439-2.457-2.439-1.476 0-2.466 1.053-2.466 2.439 0 1.386.99 2.439 2.466 2.439zm2.953-.144h1.467v-2.07c0-.999.576-1.44 1.476-1.314h.036v-1.26a.769.769 0 00-.288-.036c-.558 0-.936.243-1.26.792h-.027v-.72h-1.404V26zm5.407.144c1.206 0 2.097-.522 2.097-1.53 0-1.179-.954-1.386-1.764-1.521-.585-.108-1.107-.153-1.107-.477 0-.288.279-.423.639-.423.405 0 .684.126.738.54h1.35c-.072-.909-.774-1.476-2.079-1.476-1.089 0-1.989.504-1.989 1.476 0 1.08.855 1.296 1.656 1.431.612.108 1.17.153 1.17.567 0 .297-.279.459-.72.459-.486 0-.792-.225-.846-.684h-1.386c.045 1.017.891 1.638 2.241 1.638zm4.867-.009c.585 0 1.053-.153 1.44-.423.405-.279.675-.675.774-1.089h-1.431c-.126.288-.378.459-.765.459-.603 0-.945-.387-1.035-1.008h3.312c.009-.936-.261-1.737-.81-2.241-.396-.36-.918-.576-1.575-.576-1.404 0-2.367 1.053-2.367 2.43 0 1.395.936 2.448 2.457 2.448zm-1.008-2.934c.099-.549.387-.9.945-.9.477 0 .819.351.873.9h-1.818zM131.447 26h1.359l.549-2.088c.099-.36.207-.828.207-.828h.018s.099.468.198.828l.54 2.088h1.377l1.413-4.608h-1.449l-.513 1.908c-.099.369-.216.9-.216.9h-.018s-.117-.531-.216-.927l-.504-1.881h-1.242l-.486 1.881c-.099.387-.207.918-.207.918h-.018s-.108-.522-.207-.891l-.504-1.908h-1.494L131.447 26zm8.079-.9c-.639 0-.972-.558-.972-1.395s.333-1.404.972-1.404.981.567.981 1.404-.342 1.395-.981 1.395zm.009 1.044c1.485 0 2.457-1.053 2.457-2.439 0-1.386-.972-2.439-2.457-2.439-1.476 0-2.466 1.053-2.466 2.439 0 1.386.99 2.439 2.466 2.439zm2.953-.144h1.467v-2.07c0-.999.576-1.44 1.476-1.314h.036v-1.26a.769.769 0 00-.288-.036c-.558 0-.936.243-1.26.792h-.027v-.72h-1.404V26zm3.445 0h1.449v-1.413l.441-.468L148.93 26h1.701l-1.809-2.88 1.62-1.728h-1.692l-1.368 1.557v-3.384h-1.449V26z" fill="#fff"/></svg>